<?xml version="1.0" encoding="UTF-8"?>
<svg width="7px" height="14px" viewBox="0 0 7 14" version="1.1" xmlns="http://www.w3.org/2000/svg" xmlns:xlink="http://www.w3.org/1999/xlink">
    <title>Vector</title>
    <g id="页面-1" stroke="none" stroke-width="1" fill="none" fill-rule="evenodd">
        <g id="官网首页" transform="translate(-576.000000, -1757.000000)">
            <rect fill="#FFFFFF" x="0" y="0" width="1920" height="4592"></rect>
            <path d="M576.2,1757.15 C576.4,1756.95 576.7,1756.95 576.900001,1757.15 C576.900001,1757.15 582.550004,1762.85 582.550004,1762.85 C582.950004,1763.2 582.950004,1763.8 582.550004,1764.2 C582.550004,1764.2 576.85,1769.9 576.85,1769.9 C576.65,1770.1 576.35,1770.1 576.15,1769.9 C575.95,1769.7 575.95,1769.4 576.15,1769.2 C576.15,1769.2 581.850002,1763.55 581.850002,1763.55 C581.850002,1763.5 581.850002,1763.5 581.850002,1763.55 C581.850002,1763.55 576.2,1757.85 576.2,1757.85 C576,1757.65 576,1757.35 576.2,1757.15 Z" id="Vector" fill="#DF0629" fill-rule="nonzero"></path>
        </g>
    </g>
</svg>