<?xml version="1.0" encoding="utf-8"?>
<!-- Generator: Adobe Illustrator 24.2.3, SVG Export Plug-In . SVG Version: 6.00 Build 0)  -->
<svg version="1.1" id="Layer_1" xmlns="http://www.w3.org/2000/svg" xmlns:xlink="http://www.w3.org/1999/xlink" x="0px" y="0px"
	 viewBox="0 0 142.2 39.6" style="enable-background:new 0 0 142.2 39.6;" xml:space="preserve">
<style type="text/css">
	.st0{fill:#FFFFFF;}
</style>
<g id="Group_15" transform="translate(71.578 3.807)">
	<g id="Group_2" transform="translate(0 0.001)">
		<g id="Group_1">
			<path id="Path_1" class="st0" d="M0.2,0v2.5H9v4.2H0v2.5h9c-0.6,5.2-4.4,7.4-9,8.6l0,2c6-1,8.6-4,10.8-7.3
				c3,3.7,3.4,5.5,11.3,7.2v-2c-3.9-0.7-9.3-3.7-9.6-8.5h9.7V6.7h-9.7V2.5h9V0L0.2,0z"/>
		</g>
	</g>
	<g id="Group_4" transform="translate(24.228)">
		<g id="Group_3">
			<path id="Path_2" class="st0" d="M8.2,5.8H0l0-1.2h7.7c0.4,0,0.6-0.1,0.6-0.3V2.4c0-0.8-0.6-1.2-1.8-1.2H0.1V0h7.5
				c1.8,0,2.8,0.3,2.8,1.8v2.2C10.4,5.2,9.7,5.8,8.2,5.8"/>
		</g>
	</g>
	<g id="Group_6" transform="translate(35.665)">
		<g id="Group_5">
			<path id="Path_3" class="st0" d="M8.1,5.8H0.2l0-1.2h5.9c0.4,0,0.6-0.1,0.6-0.3V2.4c0-0.8-0.5-1.2-1.5-1.2H0V0h7.5
				c1.8,0,2.8,0.2,2.8,1.7v2.5C10.3,5.3,9.6,5.8,8.1,5.8"/>
		</g>
	</g>
	<g id="Group_8" transform="translate(24.071 6.731)">
		<g id="Group_7">
			<path id="Path_4" class="st0" d="M16.7,8.1h5.2V6.8h-5.2V5.9h5.1l0-3.4c0-1.8,0-2.5,0-2.5H0.2v5.9h5.4c0,0,0,0.6,0,1l-1.2,0H0
				v1.3h5.6c0,0,0,0.4,0,0.7l-1.3,0H0v1.5h4.7c-0.3,0.5-0.7,0.8-1.1,1c-1.1,0.3-2.3,0.4-3.4,0.4V13c1.7,0.2,3.4,0,5.1-0.4
				c1-0.4,2.3-2.3,2.3-2.3h6.9c0.5,1.1,1.4,1.9,2.6,2.4c1.6,0.4,3.2,0.5,4.9,0.4l0-1.3c0,0-3.4,0-3.9-0.4c-0.4-0.3-0.8-0.6-1.2-1
				h5.1V8.8h-5.2L16.7,8.1z M12,1.4h7.6v0.7H12V1.4z M3.1,1.4h7.2v0.7H3.1V1.4z M3.1,4.2V3.5h7.2v0.7H3.1z M13.8,8.8H7.7V8.1h6.1
				c0,0.2,0,0.2,0,0.5L13.8,8.8z M7.7,6.8V5.9h6.1c0,0,0,0.6,0,0.9H7.7z M12,4.2V3.5h7.6v0.7H12z"/>
		</g>
	</g>
	<g id="Group_10" transform="translate(47.96)">
		<g id="Group_9">
			<path id="Path_5" class="st0" d="M0,5.8v2.5h2.3l-1.5,8.2c-0.3,2.4,0.7,3.3,3.1,3.3h15.8c1.6-0.2,2.3-0.8,1.8-2.5l-1.5-6h-2.3
				l1.2,5.1c0.2,0.5,0,0.8-0.7,0.8H3.1l1.5-9h17.3V5.8L0,5.8z M0.4,2.4h20.7V0H0.4L0.4,2.4z"/>
		</g>
	</g>
	<g id="Group_12" transform="translate(25.361 2.678)">
		<g id="Group_11">
			<rect id="Rectangle_1" x="0" y="0" class="st0" width="6.8" height="0.7"/>
		</g>
	</g>
	<g id="Group_14" transform="translate(36.879 2.678)">
		<g id="Group_13">
			<rect id="Rectangle_2" x="0" y="0" class="st0" width="6.3" height="0.7"/>
		</g>
	</g>
</g>
<g id="Group_28" transform="translate(70.672 26.646)">
	<g id="Group_17" transform="translate(0 0)">
		<g id="Group_16">
			<path id="Path_6" class="st0" d="M13.1,8.2c-0.5,1.1-1.3,1.9-2.4,2.4c-1.2,0.6-2.6,0.9-3.9,0.9C5,11.5,3.2,11,1.8,9.8
				C0.6,8.8,0,7.3,0,5.8C0,5,0.1,4.3,0.5,3.6c0.3-0.7,0.8-1.3,1.4-1.8c0.6-0.6,1.4-1,2.2-1.3C4.9,0.1,5.9,0,6.9,0c1,0,2,0.1,2.9,0.4
				c0.8,0.3,1.4,0.7,2,1.2c0.5,0.5,0.9,1.2,1.2,1.9c0.3,0.8,0.4,1.5,0.4,2.3H2.6c0,0.9,0.2,1.7,0.6,2.5c0.4,0.6,0.9,1,1.6,1.2
				C5.5,9.9,6.2,10,7,10c0.9,0,1.7-0.2,2.5-0.6c0.7-0.3,1.2-0.9,1.5-1.6L13.1,8.2z M10.9,4.6c0-0.9-0.4-1.8-1-2.4
				C9,1.6,7.9,1.2,6.9,1.3c-1.1,0-2.1,0.3-3,1C3.2,2.8,2.7,3.7,2.7,4.6L10.9,4.6z"/>
		</g>
	</g>
	<g id="Group_19" transform="translate(19.006 0.032)">
		<g id="Group_18">
			<path id="Path_7" class="st0" d="M12,7.6c-0.2,0.7-0.5,1.4-1,2c-0.5,0.6-1.2,1.1-2,1.4c-0.9,0.3-1.8,0.5-2.8,0.5
				c-1.7,0.1-3.4-0.5-4.7-1.6C0.5,8.7,0,7.2,0,5.7c0-1.5,0.6-3,1.6-4c1.3-1.2,3-1.8,4.7-1.7C7.7-0.1,9,0.3,10.2,1
				c1,0.6,1.6,1.6,1.9,2.7L9.9,4.1C9.8,3.3,9.4,2.6,8.8,2.2C8.1,1.6,7.2,1.4,6.4,1.4c-1.1-0.1-2.3,0.4-3,1.3
				C2.8,3.5,2.4,4.6,2.4,5.6c0,1.1,0.3,2.1,0.9,3C4,9.6,5.1,10.1,6.2,10C8,10.1,9.6,9,9.9,7.3L12,7.6z"/>
		</g>
	</g>
	<g id="Group_21" transform="translate(34.503)">
		<g id="Group_20">
			<rect id="Rectangle_3" x="0" y="0" class="st0" width="2.1" height="11.4"/>
		</g>
	</g>
	<g id="Group_23" transform="translate(39.174 3.045)">
		<g id="Group_22">
			<path id="Path_8" class="st0" d="M0,4.1c0-0.7,0.2-1.4,0.6-2.1c0.4-0.7,1-1.2,1.7-1.5C3.1,0.2,4.1,0,5,0c0.9,0,1.8,0.2,2.6,0.6
				c0.7,0.3,1.2,0.9,1.6,1.5c0.4,0.6,0.5,1.3,0.5,2.1c0,1.1-0.5,2.2-1.3,3C7.4,8,6.1,8.5,4.7,8.4c-0.9,0-1.8-0.2-2.6-0.6
				C1.4,7.4,0.9,6.9,0.5,6.2C0.2,5.6,0,4.9,0,4.1 M7.4,6.2C7.8,5.6,8,4.9,7.9,4.1C8,3.4,7.7,2.6,7.3,2C6.6,1.3,5.8,1,4.9,1
				c-0.5,0-1,0.1-1.5,0.3C3,1.5,2.7,1.8,2.4,2.1C2,2.7,1.8,3.4,1.9,4.1c0,0.8,0.2,1.6,0.6,2.2c0.3,0.3,0.6,0.6,1,0.7
				c0.4,0.2,0.9,0.3,1.4,0.3C5.9,7.4,6.8,7,7.4,6.2"/>
		</g>
	</g>
	<g id="Group_25" transform="translate(51.478 3.045)">
		<g id="Group_24">
			<path id="Path_9" class="st0" d="M6.9,8.4V6.3h0C6.6,6.9,6.1,7.4,5.6,7.8C5,8.2,4.3,8.4,3.6,8.4c-1,0.1-2-0.3-2.7-1.1
				C0.2,6.5-0.1,5.4,0,4.4V0h1.7v4.4C1.6,5,1.7,5.6,2,6.2c0.4,0.6,1,1,1.7,0.9c0.8,0,1.7-0.4,2.2-1c0.6-0.7,0.9-1.6,0.8-2.5V0h1.6
				v8.4L6.9,8.4z"/>
		</g>
	</g>
	<g id="Group_27" transform="translate(62.104 0.004)">
		<g id="Group_26">
			<path id="Path_10" class="st0" d="M7.7,0h1.7v11.4H7.8V9.8h0c-0.8,1.1-2.1,1.7-3.4,1.6C3.1,11.5,1.9,11,1,10.1
				C0.3,9.3,0,8.3,0,7.3c0-1.1,0.4-2.2,1.2-3C2,3.4,3.2,3,4.5,3c1.2,0,2.3,0.4,3.2,1.3L7.7,0z M7.7,6.5c0-0.6-0.2-1.1-0.6-1.6
				c-0.3-0.3-0.6-0.5-1-0.7C5.6,4.1,5.1,4,4.7,4C3.8,4,3,4.4,2.5,5C2,5.6,1.8,6.4,1.8,7.1c0,0.8,0.2,1.6,0.6,2.3
				c0.5,0.7,1.3,1.1,2.2,1c0.9,0,1.8-0.3,2.4-1c0.4-0.4,0.7-1,0.7-1.7V6.5z"/>
		</g>
	</g>
</g>
<g id="Group_30">
	<g id="Group_29">
		<path id="Path_11" class="st0" d="M53.1,12.4C51.6,8.1,47.5,5.3,43,5.3c-0.6,0-1.1,0-1.7,0.1C38.3,2,33.8,0,29.2,0
			C23,0,17.3,3.5,14.6,9.1h0C6.7,9.1,0.2,15.4,0,23.3c-0.2,8.1,6.7,14.7,14.9,14.7h24.7c0.1,0,0.3-0.1,0.3-0.3c0-0.1,0-0.1-0.1-0.2
			c-1.6-1.5-2.9-3.2-3.8-5.2c-0.1-0.3-0.4-0.5-0.7-0.5H14.8c-4.7,0-8.6-3.7-8.7-8.4c0-4,3-7.5,6.9-8.2c0.5-0.1,1-0.1,1.5-0.1
			c1.6,0,3.3,0.5,4.6,1.4c0-0.2,0-0.4,0-0.6c0-1.9,0.6-3.8,1.7-5.5c1.9-2.8,5-4.4,8.3-4.4c2.3,0,4.5,0.8,6.3,2.2
			c1.5,1.2,2.5,2.8,3.1,4.5c1-1.4,2.6-2.2,4.4-2.2c0.5,0,1,0.1,1.5,0.2c1.1,0.3,2,0.9,2.7,1.8c0.8,0.9,1.2,2.1,1.2,3.4
			c0,0.9-0.2,1.7-0.6,2.5c1.1-0.6,2.4-0.9,3.7-0.9c0.7,0,1.4,0.1,2.1,0.3c3.6,1,6,4.6,5.5,8.3c-0.5,3.5-3.3,6.2-6.8,6.6
			c-3.9,0.4-7.6-2.2-8.4-6.1c-0.1-0.5-0.1-1-0.1-1.5h3.8c0.2,0,0.3-0.1,0.3-0.3c0-0.1,0-0.2-0.1-0.2l-3.2-3L40.9,18
			c-0.3-0.3-0.8-0.3-1.1,0l-1.1,1l-5.9,5.6c-0.1,0.1-0.1,0.3,0,0.4c0.1,0.1,0.1,0.1,0.2,0.1h3.9c0,0.3,0,0.5,0,0.8
			c0,7.6,6.2,13.7,13.8,13.7c0.3,0,0.6,0,0.9,0c6.9-0.4,12.4-5.9,12.9-12.8C65,19.8,60.1,13.6,53.1,12.4z"/>
	</g>
</g>
</svg>
