<svg xmlns="http://www.w3.org/2000/svg" width="53.686" height="60.5" viewBox="0 0 53.686 60.5">
  <g id="Node.js" transform="translate(-114.3 -63.85)">
    <path id="Path_2575" data-name="Path 2575" d="M165.658,77.245l-22.172-12.8a4.837,4.837,0,0,0-4.657,0l-22.2,12.8a4.608,4.608,0,0,0-2.329,4.03v25.595a4.708,4.708,0,0,0,2.329,4.057l5.811,3.341c2.821,1.4,3.834,1.4,5.123,1.4,4.192,0,6.574-2.551,6.574-6.932V83.461a.618.618,0,0,0-.628-.628h-2.794a.618.618,0,0,0-.628.628v25.264c0,1.944-2.025,3.895-5.319,2.248l-6.081-3.51a.722.722,0,0,1-.358-.6V81.267a.667.667,0,0,1,.358-.6l22.145-12.824a.772.772,0,0,1,.688,0l22.172,12.8a.688.688,0,0,1,.358.6v25.595a.7.7,0,0,1-.331.6l-22.179,12.8a.772.772,0,0,1-.688,0l-5.7-3.368a.648.648,0,0,0-.547-.027,14.281,14.281,0,0,1-3.341,1.532c-.385.108-.9.331.189.958l7.4,4.387a4.635,4.635,0,0,0,2.329.628,4.546,4.546,0,0,0,2.3-.655l22.172-12.8a4.664,4.664,0,0,0,2.329-4.03v-25.6A4.686,4.686,0,0,0,165.658,77.245Z" fill="#689f63"/>
    <path id="Path_2576" data-name="Path 2576" d="M452.124,355.567c-5.865,0-7.155-1.478-7.593-4.387a.621.621,0,0,0-.628-.547h-2.875a.618.618,0,0,0-.628.628c0,3.726,2.025,8.194,11.731,8.194l-.027-.027c7.013,0,11.042-2.767,11.042-7.593,0-4.765-3.233-6.054-10.057-6.959-6.878-.9-7.593-1.37-7.593-2.99,0-1.316.6-3.1,5.7-3.1,4.576,0,6.25.985,6.932,4.057a.671.671,0,0,0,.628.493h2.882a.606.606,0,0,0,.466-.189.645.645,0,0,0,.162-.493c-.466-5.292-3.976-7.755-11.069-7.755-6.3,0-10.084,2.659-10.084,7.128,0,4.853,3.753,6.2,9.841,6.8,7.263.715,7.836,1.782,7.836,3.206C458.786,354.494,456.808,355.567,452.124,355.567Z" transform="translate(-304.089 -252.755)" fill="#689f63"/>
  </g>
</svg>
