<svg xmlns="http://www.w3.org/2000/svg" width="56.475" height="56.472" viewBox="0 0 56.475 56.472">
  <g id="python" transform="translate(-85.333 -85.333)">
    <path id="Path_2561" data-name="Path 2561" d="M107.528,85.333a8.074,8.074,0,0,0-8.076,8.076v4.744h12.114c1.1,0,2,1.61,2,2.711H93.409a8.074,8.074,0,0,0-8.076,8.076v10.677a8.074,8.074,0,0,0,8.076,8.076h3.332v-7.568a8.05,8.05,0,0,1,8.048-8.076h14.825A8.053,8.053,0,0,0,127.69,104V93.409a8.074,8.074,0,0,0-8.076-8.076Zm-2.033,4.546c1.13,0,2.033.339,2.033,2s-.9,2.516-2.033,2.516c-1.1,0-2-.847-2-2.513S104.394,89.88,105.495,89.88Z" transform="translate(0 0)" fill="#3c78aa"/>
    <path id="Path_2562" data-name="Path 2562" d="M329.612,298.667v7.568a8.048,8.048,0,0,1-8.048,8.073H306.743a8.048,8.048,0,0,0-8.076,8.048v10.589a8.076,8.076,0,0,0,8.076,8.076h12.086a8.076,8.076,0,0,0,8.076-8.073V328.2H314.787c-1.1,0-2-1.61-2-2.711h20.162a8.076,8.076,0,0,0,8.076-8.076V306.743a8.076,8.076,0,0,0-8.076-8.076ZM302.394,311.41l-.011.011c.034-.006.071,0,.107-.011Zm18.467,20.546c1.1,0,2,.847,2,2.513a2,2,0,0,1-2,2c-1.129,0-2.033-.339-2.033-2S319.732,331.956,320.861,331.956Z" transform="translate(-199.215 -199.215)" fill="#fdd835"/>
  </g>
</svg>
