<svg xmlns="http://www.w3.org/2000/svg" width="62.293" height="23.273" viewBox="0 0 62.293 23.273">
  <g id="go" transform="translate(-0.381 -356.642)">
    <path id="Path_2568" data-name="Path 2568" d="M5.082,363.689c-.121,0-.152-.061-.091-.152l.637-.819a.435.435,0,0,1,.334-.152H16.789c.121,0,.152.091.091.182l-.515.789a.463.463,0,0,1-.3.182ZM.5,366.479c-.121,0-.152-.061-.091-.152l.637-.819a.433.433,0,0,1,.334-.152h13.83a.139.139,0,0,1,.152.182l-.243.728a.265.265,0,0,1-.273.182Zm7.34,2.79c-.121,0-.152-.091-.091-.182l.425-.758a.4.4,0,0,1,.3-.182h6.066c.121,0,.182.091.182.212l-.061.728a.228.228,0,0,1-.212.212Zm31.482-6.127c-1.911.485-3.215.849-5.1,1.335-.455.121-.485.152-.879-.3a4.061,4.061,0,0,0-1.426-1.153,5.273,5.273,0,0,0-5.489.455,6.449,6.449,0,0,0-3.094,5.762A4.755,4.755,0,0,0,27.434,374a5.6,5.6,0,0,0,5.156-2c.273-.334.515-.7.819-1.122H27.556c-.637,0-.789-.394-.576-.91.394-.94,1.122-2.517,1.547-3.306a.819.819,0,0,1,.758-.485h11.04c-.061.819-.061,1.638-.182,2.457a12.932,12.932,0,0,1-2.487,5.945,12.633,12.633,0,0,1-8.644,5.156,10.743,10.743,0,0,1-8.158-2A9.527,9.527,0,0,1,17,371a11.9,11.9,0,0,1,2.578-8.887,13.46,13.46,0,0,1,8.492-5.247,10.453,10.453,0,0,1,8.037,1.486,9.508,9.508,0,0,1,3.518,4.277C39.809,362.9,39.688,363.052,39.323,363.143Z" transform="translate(0)" fill="#00acc1"/>
    <path id="Path_2569" data-name="Path 2569" d="M637.9,384.247a11.378,11.378,0,0,1-7.4-2.669,9.512,9.512,0,0,1-3.276-5.853,11.579,11.579,0,0,1,2.457-9.159,12.715,12.715,0,0,1,8.492-5.065,11.25,11.25,0,0,1,8.644,1.547,9.441,9.441,0,0,1,4.277,6.763,11.708,11.708,0,0,1-3.488,10.282,13.9,13.9,0,0,1-7.279,3.882c-.819.152-1.638.182-2.426.273Zm7.219-12.253a8.727,8.727,0,0,0-.091-1,5,5,0,0,0-6.187-4.034,6.625,6.625,0,0,0-5.307,5.277,5,5,0,0,0,2.79,5.732,5.56,5.56,0,0,0,4.944-.182,6.637,6.637,0,0,0,3.852-5.793Z" transform="translate(-588.533 -4.332)" fill="#00acc1"/>
  </g>
</svg>
