<svg xmlns="http://www.w3.org/2000/svg" width="50.873" height="71.264" viewBox="0 0 50.873 71.264">
  <g id="java" transform="translate(-150.092 -5.12)">
    <path id="Path_2570" data-name="Path 2570" d="M517.571,222.636c3.383,3.743-.936,7.27-.936,7.27s8.422-4.319,4.607-9.79c-3.6-5.039-6.407-7.558,8.638-16.34,0,.072-23.611,6.047-12.309,18.86" transform="translate(-338.799 -184.691)" fill="red"/>
    <path id="Path_2571" data-name="Path 2571" d="M400.768,5.12s7.126,7.126-6.766,18.14c-11.086,8.854-2.519,13.893,0,19.724-6.551-5.9-11.229-11.086-8.062-15.908,4.535-7.126,17.708-10.582,14.829-21.955" transform="translate(-218.325)" fill="red"/>
    <path id="Path_2572" data-name="Path 2572" d="M336.431,583.159c12.885-6.695,6.91-13.245,2.807-12.309a14.448,14.448,0,0,0-1.512.36,2.062,2.062,0,0,1,1.152-.792c8.278-2.879,14.613,8.494-2.663,13.1-.072,0,.144-.216.216-.36m-23.755,2.735s-2.663,1.512,1.872,2.088a40.1,40.1,0,0,0,14.253-.576,21.861,21.861,0,0,0,3.743,1.872c-13.461,5.687-30.449-.36-19.868-3.383m-1.656-7.486s-3.023,2.232,1.656,2.663a52.972,52.972,0,0,0,18.356-.936,8.115,8.115,0,0,0,2.879,1.728c-16.268,4.823-34.48.36-22.891-3.455" transform="translate(-146.213 -525.131)" fill="#69f"/>
    <path id="Path_2573" data-name="Path 2573" d="M196.552,599.309s1.944,1.656-2.232,2.879c-7.846,2.447-32.393,3.167-39.231.144-2.447-1.08,2.232-2.519,3.6-2.879a7.019,7.019,0,0,1,2.447-.216c-2.735-2.016-17.708,3.671-7.558,5.327,27.426,4.391,50.1-2.016,42.974-5.255m-28.866-20.947s-12.525,3.023-4.463,3.959a92.758,92.758,0,0,0,16.556-.216c5.183-.432,10.366-1.368,10.366-1.368a19.275,19.275,0,0,0-3.167,1.728c-12.741,3.383-37.288,1.872-30.233-1.656a24.59,24.59,0,0,1,10.942-2.448" transform="translate(0 -532.931)" fill="#69f"/>
    <path id="Path_2574" data-name="Path 2574" d="M289.342,932.031c12.381.792,31.385-.432,31.889-6.335,0,0-.936,2.232-10.294,3.959a102.752,102.752,0,0,1-31.385.432c.144.072,1.728,1.44,9.79,1.944" transform="translate(-120.359 -855.863)" fill="#69f"/>
  </g>
</svg>
