<svg xmlns="http://www.w3.org/2000/svg" width="63.141" height="57.401" viewBox="0 0 63.141 57.401">
  <g id="Group_2955" data-name="Group 2955" transform="translate(-8.333 -16.667)">
    <path id="Path_2124" data-name="Path 2124" d="M122.117,151.287l.821.112c6.409.915,8.932,2.267,9.916,3.262a1.666,1.666,0,0,1,.591,1.243c0,1.847-2.523,3.276-7.492,4.245l-.631.119c-4.926.89-12.054,1.342-22.46,1.431V150.333l1.63,0a147.975,147.975,0,0,1,17.625.95Z" transform="translate(-61.973 -87.631)" fill="#fa8334"/>
    <path id="Path_2125" data-name="Path 2125" d="M20.175,153.1v9.876l-.248-.039c-3.975-.689-9.137-2-11.047-4.025a1.614,1.614,0,0,1-.547-1.076l0-.115.006-.052a1.871,1.871,0,0,1,.546-1.026l.182-.184a9.906,9.906,0,0,1,3.09-1.63A40.032,40.032,0,0,1,20.1,153.14l.077-.036Z" transform="translate(0 -89.447)" fill="#fa8334"/>
    <path id="Path_2126" data-name="Path 2126" d="M8.333,59.05c.232.126.469.244.709.357l.458.207q.6.265,1.228.486a40.637,40.637,0,0,0,9.447,2.105V84.193a41.317,41.317,0,0,0-9.384,1.978q-.633.229-1.253.492l-.37.165-.31.145-.242.122-.283.148Z" transform="translate(0 -27.786)" fill="#fa8334"/>
    <path id="Path_2127" data-name="Path 2127" d="M133.448,59.233V87.239l-.232-.122-.261-.128q-.231-.11-.465-.213l-.079-.04-.564-.236-.258-.1-.544-.2-.366-.125-.268-.089-.4-.126c-.187-.058-.375-.115-.562-.168l-.114-.029q-.329-.1-.66-.181l-.29-.072-.5-.119-.581-.132-.695-.143-.34-.068-.479-.092-.893-.158-.726-.113-.646-.095-.291-.043-.919-.121-.093-.014-.537-.066-.637-.072-.624-.067c-3.182-.33-6.852-.55-11.05-.657l-.9-.02-1.643-.029-1.248-.017-1.138-.009-1.578-.006V63.165l1.584-.007a130.87,130.87,0,0,0,21.066-1.474l1.091-.205.336-.066.047-.011.606-.129.689-.156.481-.121.528-.142.512-.148.517-.158q.519-.166,1.028-.359l.014-.009c.172-.066.346-.133.517-.205l.016,0,.258-.111.291-.129.232-.107.291-.139.224-.115.257-.136Z" transform="translate(-61.973 -27.906)" fill="#fa8334"/>
    <path id="Path_2128" data-name="Path 2128" d="M62.7,90.547V69.633h-.033q2.2.134,6.947.287L69.6,90.26c-2.561.06-4.721.156-6.9.29Z" transform="translate(-35.621 -34.724)" fill="#666"/>
    <path id="Path_2129" data-name="Path 2129" d="M125.965,18.237l.722.149c3.241.7,6.761,1.93,6.761,3.992,0,1.577-2.9,3.085-7.8,4.065l-.479.095c-5.143.967-12.509,1.454-22.306,1.484V16.667l2.1.024c9.623.141,16.379.642,21,1.544Z" transform="translate(-61.973)" fill="#fa8334"/>
    <path id="Path_2130" data-name="Path 2130" d="M20.275,18.372v9.863a39.2,39.2,0,0,1-7.735-1.655l-.4-.141-.465-.172a6.8,6.8,0,0,1-3.1-2.008l-.04-.06L8.5,24.135a1.5,1.5,0,0,1-.129-.333,1.435,1.435,0,0,1-.04-.309c0-.564.675-1.283,1.853-1.978A23.424,23.424,0,0,1,16,19.337c1.538-.387,2.709-.7,4.272-.966Z" transform="translate(0 -1.117)" fill="#fa8334"/>
  </g>
</svg>
