<svg xmlns="http://www.w3.org/2000/svg" width="65.103" height="65.103" viewBox="0 0 65.103 65.103">
  <g id="Group_2950" data-name="Group 2950" transform="translate(-0.5 -0.364)">
    <path id="Path_2114" data-name="Path 2114" d="M62.391,74.877c-4.867,0-9.555-3.207-13.2-9.03A34.948,34.948,0,0,1,44,48.064c0-11.967,7.906-20.99,18.391-20.99S80.782,36.1,80.782,48.064a34.965,34.965,0,0,1-5.189,17.782C71.947,71.666,67.258,74.877,62.391,74.877Zm0-44.981A14.506,14.506,0,0,0,51.439,34.88a19.683,19.683,0,0,0-4.615,13.183,31.958,31.958,0,0,0,4.765,16.284c3.067,4.9,7.006,7.7,10.809,7.7s7.742-2.81,10.809-7.7a32.048,32.048,0,0,0,4.765-16.284A19.691,19.691,0,0,0,73.357,34.88,14.576,14.576,0,0,0,62.391,29.9ZM62.5,54.426A53.748,53.748,0,0,1,50.239,53.17c-4.047-1-6.014-2.406-6.014-4.308s1.967-3.311,6.014-4.308A53.73,53.73,0,0,1,62.5,43.3a53.634,53.634,0,0,1,12.265,1.258c4.046,1,6.014,2.406,6.014,4.308s-1.968,3.311-6.014,4.308A53.873,53.873,0,0,1,62.5,54.426ZM47.118,48.862c.335.353,1.528,1.078,4.486,1.726A53.317,53.317,0,0,0,62.5,51.6a52.753,52.753,0,0,0,10.9-1.015c2.956-.648,4.151-1.38,4.486-1.726-.335-.353-1.528-1.078-4.486-1.726a53.289,53.289,0,0,0-10.9-1.015,52.731,52.731,0,0,0-10.9,1.015c-2.958.646-4.149,1.378-4.488,1.726Zm13.86-20.378H63.8V73.465H60.979Z" transform="translate(-29.34 -18.015)" fill="#666"/>
    <path id="Path_2115" data-name="Path 2115" d="M150.99.488a4.228,4.228,0,0,1,4.582,3.3l2.84,1.042,0,.014c3.469,1.265,6.162,5.369,6.162,9.338V52.26c0,3.978-2.71,8.063-6.2,9.3l-2.917,1.044a4.2,4.2,0,0,1-7.656.787,4.331,4.331,0,0,1,0-4.283,4.219,4.219,0,0,1,3.662-2.143,4.167,4.167,0,0,1,3.113,1.41l2.4-.86a5.99,5.99,0,0,0,3.372-5.265V14.171a6.082,6.082,0,0,0-3.368-5.311l-2.667-.985a4.172,4.172,0,0,1-2.845,1.131A4.275,4.275,0,0,1,150.99.488Z" transform="translate(-98.966 -0.066)" fill="#fa8334"/>
    <path id="Path_2116" data-name="Path 2116" d="M14.446.364a4.239,4.239,0,0,1,4.082,3.208A4.3,4.3,0,0,1,16.5,8.385a4.191,4.191,0,0,1-5.111-.766L8.131,8.8a5.722,5.722,0,0,0-3.4,4.838v39a5.648,5.648,0,0,0,3.4,4.792l3.045,1.062a4.187,4.187,0,0,1,3.274-1.6v-.014a4.2,4.2,0,0,1,2.988,1.256,4.291,4.291,0,0,1-2.185,7.213,4.232,4.232,0,0,1-4.735-2.55L6.734,61.463A9.936,9.936,0,0,1,.5,52.629v-39A10,10,0,0,1,6.7,4.768l3.721-1.343A4.215,4.215,0,0,1,14.443.364Z" fill="#fa8334"/>
  </g>
</svg>
