<svg xmlns="http://www.w3.org/2000/svg" width="64.94" height="64.955" viewBox="0 0 64.94 64.955">
  <g id="Group_3002" data-name="Group 3002" transform="translate(-0.5 -0.4)">
    <path id="Path_2543" data-name="Path 2543" d="M150.95.45a4.227,4.227,0,0,1,4.578,3.279l2.825,1.039h0c3.474,1.266,6.137,5.358,6.137,9.319v37.99c0,3.961-2.7,8.053-6.169,9.286L155.4,62.4a4.221,4.221,0,0,1-3.994,2.922,4.269,4.269,0,0,1-3.669-2.143,4.38,4.38,0,0,1,0-4.286,4.178,4.178,0,0,1,3.637-2.143,4.233,4.233,0,0,1,3.117,1.4l2.4-.844a5.967,5.967,0,0,0,3.377-5.26V14.055c0-2.175-1.559-4.643-3.344-5.293l-2.663-.974a4.181,4.181,0,0,1-7.046-3.15A4.238,4.238,0,0,1,150.95.45Z" transform="translate(-99.05 -0.017)" fill="#fa8334"/>
    <path id="Path_2544" data-name="Path 2544" d="M14.4.4a4.2,4.2,0,0,1,4.059,3.215,4.235,4.235,0,0,1-1.981,4.773,4.178,4.178,0,0,1-5.1-.747L8.13,8.81a5.7,5.7,0,0,0-3.409,4.838v38.9A5.608,5.608,0,0,0,8.13,57.32l3.052,1.072A4.123,4.123,0,0,1,14.462,56.8h0a4.235,4.235,0,0,1,2.987,1.266,4.36,4.36,0,0,1,1.234,3.02,4.277,4.277,0,0,1-3.409,4.189,4.2,4.2,0,0,1-4.708-2.533L6.8,61.411a10.026,10.026,0,0,1-6.3-8.9v-38.9A9.93,9.93,0,0,1,6.669,4.783L10.4,3.452A4.132,4.132,0,0,1,14.4.4Z" fill="#fa8334"/>
    <path id="Path_2545" data-name="Path 2545" d="M77.613,80.716c0,1.553.658,2.813,1.472,2.815s1.473-1.257,1.473-2.811v0c0-1.553-.658-2.813-1.472-2.814s-1.473,1.257-1.474,2.81Z" transform="translate(-52.074 -52.337)" fill="#666"/>
    <path id="Path_2546" data-name="Path 2546" d="M114.424,80.716c0,1.553.658,2.813,1.472,2.815s1.473-1.257,1.473-2.811v0c0-1.553-.658-2.813-1.472-2.814s-1.473,1.257-1.474,2.81Z" transform="translate(-76.933 -52.337)" fill="#666"/>
    <path id="Path_2547" data-name="Path 2547" d="M78.3,114.016c-5.9,0-10.7-4.319-10.7-9.627a1.561,1.561,0,0,1,1.56-1.56H87.438a1.561,1.561,0,0,1,1.56,1.56c0,5.309-4.8,9.627-10.7,9.627Zm-7.364-8.067c.815,2.837,3.807,4.947,7.36,4.947s6.544-2.11,7.359-4.947Z" transform="translate(-45.308 -69.17)" fill="#666"/>
    <path id="Path_2548" data-name="Path 2548" d="M61.772,79.3A18.666,18.666,0,0,1,44.086,54.708a1.56,1.56,0,1,1,2.958.994,15.551,15.551,0,1,0,2.413-4.518,1.561,1.561,0,0,1-2.476-1.9A18.652,18.652,0,1,1,61.772,79.3Z" transform="translate(-28.782 -28.088)" fill="#666"/>
  </g>
</svg>
