<svg xmlns="http://www.w3.org/2000/svg" width="159.887" height="202.494" viewBox="0 0 159.887 202.494">
  <g id="Group_1876" data-name="Group 1876" transform="translate(-185.203 -349.056)">
    <g id="Group_1894" data-name="Group 1894" transform="translate(185.203 437.278)">
      <g id="Group_1883" data-name="Group 1883" transform="translate(5.316)">
        <g id="Group_1876-2" data-name="Group 1876" transform="translate(0 16.002)">
          <path id="Path_1301" data-name="Path 1301" d="M342.846,489.73l.088-14.945h-5.278c-3.69-5.415-9.29-10.5-16.878-14.879-29.536-17.053-77.428-17.053-106.965,0-7.588,4.376-13.19,9.461-16.88,14.876h-5.276l.09,14.922c-.032.776.019,3.384.019,3.384l.154.652c.95,10.4,8.139,19.983,21.893,27.923,29.537,17.054,77.429,17.054,106.965,0,13.753-7.94,21.02-18.179,21.962-28.574C342.74,493.091,342.88,490.489,342.846,489.73Z" transform="translate(-190.008 -445.524)" fill="#fa8334"/>
          <path id="Path_1302" data-name="Path 1302" d="M267.418,536.166c-19.67,0-39.332-4.321-54.3-12.965-13.788-7.961-21.635-18.012-22.692-29.074l-.174-.886s-.051-2.684-.017-3.483l-.1-16.495H196.2c3.952-5.525,9.636-10.455,16.914-14.659,29.946-17.282,78.668-17.284,108.6,0,7.281,4.2,12.969,9.134,16.919,14.659H344.7l-.094,16.559c.03.854-.095,3.2-.108,3.469-1.034,11.43-9.126,22.03-22.782,29.91C306.751,531.843,287.081,536.164,267.418,536.166ZM193.523,493l.152.712c.927,10.146,8.014,19.111,21.074,26.649,29.042,16.769,76.292,16.769,105.332,0,12.7-7.331,20.214-17.028,21.149-27.3.049-.912.121-2.649.1-3.145v-.078l.077-13.3h-4.491l-.489-.714c-3.686-5.407-9.186-10.249-16.344-14.383-29.04-16.766-76.291-16.766-105.329,0-7.16,4.134-12.661,8.976-16.344,14.381l-.484.717h-4.494l.08,13.273C193.479,490.512,193.513,492.411,193.523,493Z" transform="translate(-190.129 -445.641)" fill="#150035"/>
        </g>
        <g id="Group_1877" data-name="Group 1877" transform="translate(86.716 17.976)">
          <path id="Path_1303" data-name="Path 1303" d="M331.422,474.757c-3.69-5.415-9.29-10.5-16.878-14.879-12.362-7.137-27.951-11.246-44.055-12.407v86.574c16.1-1.161,31.693-5.271,44.055-12.409,13.753-7.94,21.02-18.179,21.962-28.574,0,0,.139-2.6.106-3.36l.088-14.945Z" transform="translate(-270.489 -447.471)" fill="#150035"/>
        </g>
        <g id="Group_1878" data-name="Group 1878" transform="translate(0.011)">
          <path id="Path_1304" data-name="Path 1304" d="M320.779,445.083c29.54,17.053,29.54,44.7,0,61.755s-77.428,17.054-106.965,0-29.538-44.7,0-61.755S291.243,428.027,320.779,445.083Z" transform="translate(-190.019 -430.695)" fill="#fff"/>
          <path id="Path_1305" data-name="Path 1305" d="M267.417,521.341c-19.67,0-39.332-4.322-54.3-12.965-14.815-8.553-22.974-20.024-22.974-32.3s8.159-23.748,22.974-32.3c29.946-17.288,78.668-17.288,108.6,0,14.818,8.553,22.976,20.022,22.976,32.3s-8.158,23.749-22.976,32.3C306.75,517.019,287.08,521.341,267.417,521.341Zm0-87.3c-19.076,0-38.145,4.192-52.666,12.576-13.753,7.944-21.334,18.4-21.334,29.461s7.573,21.515,21.33,29.456c29.042,16.769,76.292,16.769,105.332,0,13.757-7.941,21.335-18.4,21.335-29.46s-7.577-21.513-21.335-29.457C305.561,438.234,286.487,434.042,267.417,434.042Z" transform="translate(-190.139 -430.812)" fill="#150035"/>
        </g>
        <g id="Group_1879" data-name="Group 1879" transform="translate(16.008 71.773)">
          <rect id="Rectangle_207" data-name="Rectangle 207" width="2.34" height="16.042" fill="#150035"/>
        </g>
        <g id="Group_1880" data-name="Group 1880" transform="translate(70.638 88.935)">
          <rect id="Rectangle_208" data-name="Rectangle 208" width="2.345" height="16.039" fill="#150035"/>
        </g>
        <g id="Group_1881" data-name="Group 1881" transform="translate(131.793 76.222)">
          <rect id="Rectangle_209" data-name="Rectangle 209" width="1.17" height="14.036" fill="#fa8334"/>
        </g>
        <g id="Group_1882" data-name="Group 1882" transform="translate(141.147 68.294)">
          <rect id="Rectangle_210" data-name="Rectangle 210" width="1.172" height="14.036" fill="#fa8334"/>
        </g>
      </g>
      <g id="Group_1884" data-name="Group 1884" transform="translate(25.344 11.552)">
        <path id="Path_1306" data-name="Path 1306" d="M305.155,452.405c21.725,12.541,21.725,32.873,0,45.412s-56.932,12.543-78.657,0-21.717-32.871,0-45.41S283.438,439.865,305.155,452.405Z" transform="translate(-208.569 -441.4)" fill="#fa8334"/>
        <path id="Path_1307" data-name="Path 1307" d="M265.95,508.945c-14.543,0-29.08-3.2-40.15-9.589-11.036-6.369-17.111-14.939-17.111-24.129s6.075-17.755,17.111-24.123c22.139-12.783,58.159-12.783,80.3,0,11.034,6.368,17.112,14.938,17.112,24.123s-6.079,17.76-17.112,24.129C295.028,505.75,280.49,508.945,265.95,508.945Zm0-64.2c-13.953,0-27.89,3.065-38.513,9.2-9.974,5.759-15.469,13.321-15.469,21.285s5.495,15.53,15.469,21.289c21.239,12.262,55.788,12.263,77.021,0,9.975-5.759,15.471-13.32,15.471-21.289s-5.5-15.526-15.471-21.285C293.841,447.813,279.9,444.747,265.95,444.747Z" transform="translate(-208.689 -441.518)" fill="#150035"/>
      </g>
      <g id="Group_1885" data-name="Group 1885" transform="translate(26.363 24.276)">
        <path id="Path_1308" data-name="Path 1308" d="M305.073,464.2c-21.717-12.543-56.932-12.543-78.657,0-8.04,4.643-13.084,10.355-15.176,16.345,2.092,5.988,7.136,11.7,15.176,16.342,21.725,12.543,56.94,12.543,78.657,0,8.044-4.642,13.092-10.354,15.18-16.342C318.165,474.554,313.117,468.842,305.073,464.2Z" transform="translate(-209.507 -453.192)" fill="#fff"/>
        <path id="Path_1309" data-name="Path 1309" d="M265.875,508.012c-14.545,0-29.08-3.2-40.15-9.589-8.105-4.683-13.608-10.637-15.906-17.224l-.186-.538.186-.542c2.3-6.587,7.8-12.541,15.906-17.225,22.139-12.78,58.159-12.78,80.3,0,8.109,4.684,13.608,10.639,15.9,17.225l.189.542-.189.538c-2.294,6.588-7.793,12.541-15.9,17.224C294.953,504.817,280.412,508.01,265.875,508.012Zm-52.763-27.352c2.15,5.623,7.063,10.774,14.251,14.924,21.239,12.265,55.788,12.262,77.021,0,7.189-4.15,12.1-9.3,14.249-14.924-2.151-5.625-7.06-10.776-14.249-14.926h0c-21.233-12.262-55.783-12.262-77.021,0C220.175,469.885,215.261,475.035,213.112,480.661Z" transform="translate(-209.634 -453.309)" fill="#150035"/>
      </g>
      <g id="Group_1886" data-name="Group 1886" transform="translate(93.764 13.954)">
        <rect id="Rectangle_211" data-name="Rectangle 211" width="2.337" height="12.721" fill="#150035"/>
      </g>
      <g id="Group_1887" data-name="Group 1887" transform="translate(105.832 17.595)">
        <rect id="Rectangle_212" data-name="Rectangle 212" width="2.341" height="12.72" fill="#150035"/>
      </g>
      <g id="Group_1888" data-name="Group 1888" transform="translate(26.983 13.954)">
        <path id="Path_1310" data-name="Path 1310" d="M255.352,443.744v11.921L237.6,460.1l-19.77,11.465-6.507,7.59-1.114-7.809,7.621-12.531,10.474-7.465,13.371-5.228Z" transform="translate(-210.208 -443.744)" fill="#150035"/>
      </g>
      <g id="Group_1891" data-name="Group 1891" transform="translate(70.411 42.657)">
        <g id="Group_1889" data-name="Group 1889" transform="translate(0 2.266)">
          <path id="Path_1311" data-name="Path 1311" d="M273.4,480.011l.012-2.117-1.326-2.3c-.52-.767-.737.806-1.816.186a16.733,16.733,0,0,0-15.154,0c-1.077.62-1.245.218-1.773.985l-1.367,1.124.01,2.114c0,.108,0,.477,0,.477l.022.094c.137,1.473,1.15,2.832,3.1,3.955a16.727,16.727,0,0,0,15.154,0c1.954-1.123,2.982-2.574,3.116-4.049C273.386,480.484,273.4,480.118,273.4,480.011Z" transform="translate(-250.333 -472.322)" fill="#fa8334"/>
          <path id="Path_1312" data-name="Path 1312" d="M262.814,488.116a17.12,17.12,0,0,1-8.4-2.039c-2.9-1.677-3.73-3.669-3.9-5.093l-.049-.346s-.006-.446,0-.579l-.014-2.816,1.816-1.488a2.672,2.672,0,0,1,1.564-1.027,2,2,0,0,0,.578-.242,18.4,18.4,0,0,1,16.363-.24,1.919,1.919,0,0,1,1.375-.366,2,2,0,0,1,1.41.918l1.614,2.782-.014,2.562c0,.191-.015.548-.015.548-.2,2.15-1.592,4.038-3.937,5.388A17.092,17.092,0,0,1,262.814,488.116Zm-9.068-7.672.022.108c.1,1.19,1.3,2.118,2.287,2.685a15.188,15.188,0,0,0,13.519,0c1.392-.8,2.214-1.787,2.3-2.775l.009-.288v-.054l.01-1.672-.481-.831a2.428,2.428,0,0,1-1.834-.291,15.181,15.181,0,0,0-13.522,0,5.364,5.364,0,0,1-1.267.536l-.282.3-.767.626Z" transform="translate(-250.453 -472.443)" fill="#150035"/>
        </g>
        <g id="Group_1890" data-name="Group 1890" transform="translate(0.003)">
          <path id="Path_1313" data-name="Path 1313" d="M270.27,473.682c4.191,2.415,4.191,6.334,0,8.751a16.733,16.733,0,0,1-15.154,0c-4.19-2.417-4.19-6.336,0-8.751A16.74,16.74,0,0,1,270.27,473.682Z" transform="translate(-250.336 -470.223)" fill="#fa8334"/>
          <path id="Path_1314" data-name="Path 1314" d="M262.814,486.015a17.167,17.167,0,0,1-8.4-2.041c-2.547-1.473-3.955-3.532-3.955-5.8s1.408-4.321,3.955-5.8a18.336,18.336,0,0,1,16.8,0h-.006c2.554,1.475,3.961,3.534,3.961,5.8s-1.407,4.324-3.961,5.8A17.116,17.116,0,0,1,262.814,486.015Zm0-12.378a13.87,13.87,0,0,0-6.759,1.584c-1.476.853-2.319,1.928-2.319,2.957s.843,2.107,2.319,2.956a15.181,15.181,0,0,0,13.519,0c1.476-.848,2.319-1.924,2.319-2.956s-.843-2.1-2.319-2.957h0A13.87,13.87,0,0,0,262.814,473.636Z" transform="translate(-250.456 -470.343)" fill="#150035"/>
        </g>
      </g>
      <g id="Group_1892" data-name="Group 1892" transform="translate(17.523 94.227)">
        <path id="Path_1315" data-name="Path 1315" d="M258.2,538.177c-22.583-1.854-41.677-7.944-56.759-18.1l1.311-1.943c14.74,9.931,33.463,15.89,55.644,17.712Z" transform="translate(-201.442 -518.133)" fill="#150035"/>
      </g>
      <g id="Group_1893" data-name="Group 1893" transform="translate(0 75.702)">
        <path id="Path_1316" data-name="Path 1316" d="M199.283,518.193c-10.169-8.444-13.925-15.873-14.08-16.186l2.1-1.04c.037.074,3.72,7.324,13.476,15.423Z" transform="translate(-185.203 -500.966)" fill="#150035"/>
      </g>
    </g>
    <g id="Group_1909" data-name="Group 1909" transform="translate(258.779 349.056)">
      <g id="Group_1907" data-name="Group 1907" transform="translate(0)">
        <g id="Group_1900" data-name="Group 1900">
          <g id="Group_1895" data-name="Group 1895">
            <path id="Path_1317" data-name="Path 1317" d="M299.131,383.743a.428.428,0,0,0-.4.052l-.305.177-4.091,1.327,15.582-29.315a.25.25,0,0,0-.09-.33l-9.043-5.571h0c-.215-.11-.556.015-.841.461l-40.98,64.976c-.248.4-.386.564-.25.763l.125.218,9.9,5.774s-.047.191-.114.47l-14.138,32.988c-.189.433-.113.726.068.844h0a.286.286,0,0,0,.064.037l9.151,5.6a.218.218,0,0,0,.312-.085l31.163-59.594,12.932-12.856a.267.267,0,0,0-.047-.417l-8.982-5.523Z" transform="translate(-253.308 -348.978)" fill="#fa8334"/>
            <path id="Path_1318" data-name="Path 1318" d="M263.966,463.394a1.292,1.292,0,0,1-.68-.193l-9.149-5.6a1.669,1.669,0,0,1-.558-2.216l13.95-32.545-9.391-5.485-.27-.463a1.522,1.522,0,0,1,.2-1.757l41.05-65.084a1.721,1.721,0,0,1,2.23-.845l9.118,5.612a1.315,1.315,0,0,1,.466,1.748L296.6,383.544l1.675-.6a1.593,1.593,0,0,1,.843-.22l.241-.082,9.405,5.785a1.331,1.331,0,0,1,.237,2.087l-12.81,12.735-31.3,59.86-.587.234A1.211,1.211,0,0,1,263.966,463.394Zm-8.331-7.38,8,4.893,30.935-59.054,12.208-12.137-7.72-4.747-.216.1-6.605,2.14,16.46-30.967-7.875-4.853L260.058,416l9.983,5.829-.3,1.24Z" transform="translate(-253.386 -349.056)" fill="#150035"/>
          </g>
          <g id="Group_1896" data-name="Group 1896" transform="translate(9.355 5.719)">
            <path id="Path_1319" data-name="Path 1319" d="M308.619,355.849l-40.98,64.975c-.436.693-.166,1.366.413,1.032L282.7,413.4c.5-.288.8.18.524.818l-20.069,46.82c-.406.945.4,1.274.945.386l43.728-71.312c.423-.69.152-1.345-.423-1.014L292.5,397.7c-.5.288-.8-.183-.522-.822l17.571-40.623C309.958,355.318,309.171,354.976,308.619,355.849Z" transform="translate(-261.977 -354.278)" fill="#fff"/>
            <path id="Path_1320" data-name="Path 1320" d="M263.489,463.088a1.433,1.433,0,0,1-.657-.158,1.649,1.649,0,0,1-.581-2.239l19.442-45.354-13.027,7.522a1.446,1.446,0,0,1-1.816-.19,1.891,1.891,0,0,1-.037-2.336l40.98-64.977a1.722,1.722,0,0,1,2.248-.841,1.656,1.656,0,0,1,.57,2.242l-16.937,39.156,13.277-7.665a1.44,1.44,0,0,1,1.807.183,1.885,1.885,0,0,1,.063,2.316l-43.729,71.31A1.912,1.912,0,0,1,263.489,463.088Zm19.575-50.769a1.363,1.363,0,0,1,.916.347,1.764,1.764,0,0,1,.305,2.048l-17,39.649,38.7-63.09-12.872,7.433a1.455,1.455,0,0,1-1.733-.116,1.764,1.764,0,0,1-.3-2.056l14.686-33.949L269.671,419.81l12.575-7.261A1.634,1.634,0,0,1,283.064,412.319Z" transform="translate(-262.056 -354.356)" fill="#150035"/>
          </g>
          <g id="Group_1897" data-name="Group 1897" transform="translate(13.509 53.006)">
            <rect id="Rectangle_213" data-name="Rectangle 213" width="2.137" height="10.953" transform="matrix(0.514, -0.858, 0.858, 0.514, 0, 1.833)" fill="#150035"/>
          </g>
          <g id="Group_1898" data-name="Group 1898" transform="translate(41.853 8.358)">
            <rect id="Rectangle_214" data-name="Rectangle 214" width="2.136" height="10.953" transform="translate(0 1.832) rotate(-59.067)" fill="#150035"/>
          </g>
          <g id="Group_1899" data-name="Group 1899" transform="translate(7.781 89.274)">
            <rect id="Rectangle_215" data-name="Rectangle 215" width="2.137" height="10.954" transform="matrix(0.514, -0.858, 0.858, 0.514, 0, 1.833)" fill="#150035"/>
          </g>
        </g>
        <g id="Group_1903" data-name="Group 1903" transform="translate(13.755 1.253)">
          <g id="Group_1901" data-name="Group 1901" transform="translate(6.909 0)">
            <rect id="Rectangle_216" data-name="Rectangle 216" width="28.793" height="2.14" transform="translate(0 24.285) rotate(-57.504)" fill="#150035"/>
          </g>
          <g id="Group_1902" data-name="Group 1902" transform="translate(0 27.537)">
            <rect id="Rectangle_217" data-name="Rectangle 217" width="9.008" height="2.137" transform="translate(0 7.601) rotate(-57.548)" fill="#150035"/>
          </g>
        </g>
        <g id="Group_1906" data-name="Group 1906" transform="translate(11.361 88.862)">
          <g id="Group_1904" data-name="Group 1904" transform="translate(6.907 0)">
            <rect id="Rectangle_218" data-name="Rectangle 218" width="28.791" height="2.138" transform="translate(0 24.276) rotate(-57.478)" fill="#150035"/>
          </g>
          <g id="Group_1905" data-name="Group 1905" transform="translate(0 27.533)">
            <rect id="Rectangle_219" data-name="Rectangle 219" width="9.005" height="2.14" transform="matrix(0.537, -0.844, 0.844, 0.537, 0, 7.598)" fill="#150035"/>
          </g>
        </g>
      </g>
      <g id="Group_1908" data-name="Group 1908" transform="translate(24.162 49.539)">
        <path id="Path_1321" data-name="Path 1321" d="M278.7,402.833c-.319,1.873-2.514,2.775-2.907,2.924a.025.025,0,0,0,0,.042c.393.148,2.588,1.046,2.907,2.919,0,.028.037.028.044,0,.317-1.873,2.529-2.771,2.923-2.919a.022.022,0,0,0,0-.042c-.394-.149-2.606-1.051-2.923-2.924C278.733,402.8,278.7,402.8,278.7,402.833Z" transform="translate(-275.777 -394.344)" fill="#fa8334"/>
        <path id="Path_1322" data-name="Path 1322" d="M286.511,402.833c-.32,1.873-2.514,2.775-2.9,2.924a.022.022,0,0,0,0,.042c.39.148,2.583,1.046,2.9,2.919a.021.021,0,1,0,.042,0c.318-1.873,2.534-2.771,2.929-2.919a.024.024,0,0,0,0-.042c-.395-.149-2.61-1.051-2.929-2.924A.021.021,0,1,0,286.511,402.833Z" transform="translate(-275.16 -394.344)" fill="#fa8334"/>
        <path id="Path_1323" data-name="Path 1323" d="M286.511,394.984c-.32,1.874-2.514,2.78-2.9,2.924a.022.022,0,0,0,0,.042c.39.149,2.583,1.046,2.9,2.921a.021.021,0,0,0,.042,0c.318-1.875,2.534-2.772,2.929-2.921a.024.024,0,0,0,0-.042c-.395-.145-2.61-1.05-2.929-2.924A.021.021,0,0,0,286.511,394.984Z" transform="translate(-275.16 -394.964)" fill="#fa8334"/>
        <path id="Path_1324" data-name="Path 1324" d="M294.323,394.984c-.318,1.874-2.51,2.78-2.9,2.924a.022.022,0,0,0,0,.042c.391.149,2.582,1.046,2.9,2.921a.022.022,0,0,0,.044,0c.321-1.875,2.534-2.772,2.925-2.921a.022.022,0,0,0,0-.042c-.392-.145-2.6-1.05-2.925-2.924A.022.022,0,0,0,294.323,394.984Z" transform="translate(-274.541 -394.964)" fill="#fa8334"/>
      </g>
    </g>
  </g>
</svg>
