<svg xmlns="http://www.w3.org/2000/svg" width="141.913" height="198.749" viewBox="0 0 141.913 198.749">
  <g id="Group_2948" data-name="Group 2948" transform="translate(-1207.55 -474.836)">
    <g id="Group_2938" data-name="Group 2938" transform="translate(1207.55 474.836)">
      <g id="Group_2918" data-name="Group 2918" transform="translate(0 53.626)">
        <path id="Path_2070" data-name="Path 2070" d="M1235.457,533.317l.007-.011s-18.12-7.024-25.245,6.1,8.667,24.481,8.667,24.481l0-.01c2.324,1.965,5.839,1.991,9.734-.4,6.735-4.133,12.022-13.885,11.811-21.783C1240.31,537.123,1238.371,534.192,1235.457,533.317Z" transform="translate(-1207.582 -530.667)" fill="#fa8334"/>
        <path id="Path_2071" data-name="Path 2071" d="M1222.909,566.093a6.926,6.926,0,0,1-4.43-1.52l-.094-.067c-.164-.118-16.279-11.927-8.9-25.514s26.051-6.534,26.24-6.464l.132.052q.333.112.651.254l.094.037,0,.006c2.829,1.313,4.492,4.446,4.61,8.765.218,8.139-5.254,18.228-12.193,22.488A11.873,11.873,0,0,1,1222.909,566.093Zm-4.266-3.468.733.608c2.147,1.814,5.352,1.641,8.8-.474,6.505-3.99,11.63-13.447,11.426-21.077-.109-4.038-1.714-6.82-4.4-7.628l-.976-.292.026-.04c-3.663-1.161-17.532-4.688-23.352,6.035-5.858,10.792,4.827,20.53,7.732,22.9Z" transform="translate(-1207.55 -530.636)" fill="#150035"/>
      </g>
      <g id="Group_2919" data-name="Group 2919" transform="translate(60.73 164.491)">
        <path id="Path_2072" data-name="Path 2072" d="M1271.579,646.914v28.1c-.029,1.146.713,2.295,2.225,3.169a11.889,11.889,0,0,0,10.762,0,3.781,3.781,0,0,0,2.229-3.1h0V646.834Z" transform="translate(-1270.775 -646.028)" fill="#150035"/>
        <path id="Path_2073" data-name="Path 2073" d="M1279.152,680.253a11.754,11.754,0,0,1-5.782-1.405c-1.731-1-2.662-2.378-2.627-3.884V646.083l16.822-.088v29.054a4.534,4.534,0,0,1-2.628,3.8A11.766,11.766,0,0,1,1279.152,680.253Zm-6.8-32.576v27.309a2.993,2.993,0,0,0,1.823,2.475,11.024,11.024,0,0,0,9.958,0,3.041,3.041,0,0,0,1.828-2.411V647.609Z" transform="translate(-1270.742 -645.995)" fill="#150035"/>
      </g>
      <g id="Group_2922" data-name="Group 2922" transform="translate(28.863 124.666)">
        <g id="Group_2920" data-name="Group 2920" transform="translate(0.027 0.002)">
          <path id="Path_2074" data-name="Path 2074" d="M1238.743,630.955h-.022s5.61,43.416,39.249,43.375,39.1-43.513,39.1-43.513h-.024c1.384-6.709-2.353-13.694-11.274-18.825-15.43-8.869-40.418-8.826-55.815.1C1241.05,617.254,1237.335,624.252,1238.743,630.955Z" transform="translate(-1237.644 -604.589)" fill="#fff"/>
          <path id="Path_2075" data-name="Path 2075" d="M1277.891,675.1c-33.914,0-39.945-43.633-40-44.072l-.044-.348c-1.308-7.222,2.922-14.244,11.673-19.317,15.6-9.037,41-9.083,56.616-.1,8.817,5.07,13.074,12.126,11.718,19.4l-.02.226c-.054.439-5.94,44.171-39.894,44.214Zm-38.278-43.432c1.022,6.007,8.357,41.827,38.278,41.827h.046c29.888-.037,37.134-35.729,38.161-41.907h-.05l.178-.965c1.37-6.65-2.6-13.2-10.891-17.967-15.18-8.729-39.86-8.687-55.014.1-8.274,4.8-12.221,11.36-10.824,18l.187.907Z" transform="translate(-1237.611 -604.558)" fill="#150035"/>
        </g>
        <g id="Group_2921" data-name="Group 2921">
          <path id="Path_2076" data-name="Path 2076" d="M1305.795,612.04c15.411,8.9,15.411,23.327,0,32.226s-40.4,8.9-55.816,0-15.409-23.327,0-32.229S1290.382,603.142,1305.795,612.04Z" transform="translate(-1237.616 -604.587)" fill="#150035"/>
          <path id="Path_2077" data-name="Path 2077" d="M1277.853,651.69c-10.251,0-20.5-2.253-28.307-6.76-7.715-4.453-11.963-10.422-11.963-16.807s4.248-12.356,11.963-16.808c15.609-9.015,41.011-9.015,56.618,0h0c7.714,4.451,11.961,10.422,11.961,16.808s-4.247,12.353-11.961,16.807C1298.358,649.436,1288.107,651.69,1277.853,651.69Zm0-45.553c-9.959,0-19.92,2.19-27.5,6.568-7.2,4.155-11.159,9.629-11.159,15.419s3.961,11.263,11.158,15.418c15.167,8.756,39.843,8.756,55.014,0,7.193-4.155,11.156-9.63,11.156-15.418s-3.962-11.264-11.156-15.419C1297.775,608.327,1287.818,606.137,1277.853,606.137Z" transform="translate(-1237.583 -604.555)" fill="#150035"/>
        </g>
      </g>
      <g id="Group_2925" data-name="Group 2925" transform="translate(3.925 29.562)">
        <g id="Group_2923" data-name="Group 2923" transform="translate(0 18.228)">
          <path id="Path_2078" data-name="Path 2078" d="M1341.286,602.591a21.835,21.835,0,0,0-.556-4.812c-1.572-11.57-7.2-42.289-25.165-72.341l-38.691,3.259-38.689-3.259c-17.958,30.053-23.588,60.771-25.165,72.341-2.482,11.05,3.612,22.617,18.311,31.107,25.154,14.521,65.934,14.521,91.089,0,12.577-7.261,18.865-16.78,18.865-26.3Z" transform="translate(-1211.668 -524.597)" fill="#fff"/>
          <path id="Path_2079" data-name="Path 2079" d="M1276.842,640.515c-16.639,0-33.278-3.656-45.945-10.969-14.556-8.4-21.368-20.057-18.691-31.975,1.594-11.752,7.277-42.486,25.26-72.578l.255-.43,39.189,3.3,39.056-3.3.26.43c17.984,30.1,23.662,60.829,25.269,72.643a22.475,22.475,0,0,1,.562,4.922c0,10.23-6.842,19.815-19.266,26.988C1310.121,636.859,1293.485,640.515,1276.842,640.515Zm-38.256-114.268c-17.625,29.7-23.217,59.944-24.8,71.606-2.527,11.255,4.01,22.275,17.916,30.3,24.891,14.368,65.393,14.368,90.288,0,11.905-6.877,18.463-15.969,18.463-25.6a21.158,21.158,0,0,0-.536-4.636c-1.6-11.73-7.184-41.972-24.815-71.675l-38.191,3.216Z" transform="translate(-1211.635 -524.563)" fill="#150035"/>
        </g>
        <g id="Group_2924" data-name="Group 2924" transform="translate(24.937)">
          <path id="Path_2080" data-name="Path 2080" d="M1305.795,513.083c15.411,8.9,15.411,23.324,0,32.226s-40.4,8.9-55.816,0-15.409-23.326,0-32.226S1290.382,504.184,1305.795,513.083Z" transform="translate(-1237.616 -505.628)" fill="#fa8334"/>
          <path id="Path_2081" data-name="Path 2081" d="M1277.853,552.73c-10.251,0-20.5-2.254-28.307-6.758-7.715-4.453-11.963-10.423-11.963-16.809s4.248-12.355,11.963-16.809c15.609-9.012,41.011-9.012,56.618,0h0c7.714,4.453,11.961,10.424,11.961,16.809s-4.247,12.355-11.961,16.809C1298.358,550.477,1288.107,552.73,1277.853,552.73Zm0-45.552c-9.959,0-19.92,2.187-27.5,6.568-7.2,4.155-11.159,9.629-11.159,15.417s3.961,11.262,11.158,15.418c15.167,8.756,39.843,8.756,55.014,0,7.193-4.156,11.156-9.631,11.156-15.418s-3.962-11.262-11.156-15.417C1297.775,509.366,1287.818,507.179,1277.853,507.179Z" transform="translate(-1237.583 -505.596)" fill="#150035"/>
        </g>
      </g>
      <g id="Group_2926" data-name="Group 2926" transform="translate(28.891)">
        <path id="Path_2082" data-name="Path 2082" d="M1317.037,519.115h.024s-5.533-43.425-39.175-43.445-39.173,43.445-39.173,43.445h.025c-1.4,6.7,2.329,13.7,11.241,18.844,15.414,8.9,40.4,8.9,55.816,0C1314.709,532.813,1318.434,525.819,1317.037,519.115Z" transform="translate(-1237.645 -474.868)" fill="#fff"/>
        <path id="Path_2083" data-name="Path 2083" d="M1277.854,545.38c-10.25,0-20.5-2.255-28.307-6.759-8.805-5.084-13.045-12.145-11.685-19.412l.025-.229c.056-.442,6.016-44.145,39.946-44.145h.021c33.956.017,39.914,43.7,39.973,44.145l.041.326c1.305,7.234-2.936,14.253-11.7,19.315C1298.359,543.126,1288.108,545.38,1277.854,545.38Zm-38.238-27.1h.054l-.177.966c-1.386,6.646,2.574,13.2,10.857,17.987,15.167,8.756,39.843,8.756,55.014,0,8.282-4.784,12.24-11.339,10.856-17.987l-.2-.966h.071c-1.041-6.178-8.366-41.823-38.237-41.838h-.021C1247.979,476.441,1240.659,512.1,1239.616,518.279Z" transform="translate(-1237.612 -474.836)" fill="#150035"/>
      </g>
      <g id="Group_2927" data-name="Group 2927" transform="translate(61.096 3.2)">
        <path id="Path_2084" data-name="Path 2084" d="M1284.322,480.234c2.827,1.632,2.827,4.281,0,5.914a11.325,11.325,0,0,1-10.242,0c-2.828-1.633-2.828-4.282,0-5.914A11.325,11.325,0,0,1,1284.322,480.234Z" transform="translate(-1271.156 -478.199)" fill="#fa8334"/>
        <path id="Path_2085" data-name="Path 2085" d="M1279.167,488.151a11.229,11.229,0,0,1-5.519-1.341,3.9,3.9,0,0,1,0-7.3,12.047,12.047,0,0,1,11.043,0h0a3.905,3.905,0,0,1,0,7.3A11.269,11.269,0,0,1,1279.167,488.151Zm0-8.363a9.663,9.663,0,0,0-4.72,1.109,2.347,2.347,0,0,0,0,4.524,10.622,10.622,0,0,0,9.44,0,2.348,2.348,0,0,0,0-4.524h0A9.674,9.674,0,0,0,1279.169,479.788Z" transform="translate(-1271.123 -478.166)" fill="#150035"/>
      </g>
      <g id="Group_2928" data-name="Group 2928" transform="translate(106.639 64.326)">
        <path id="Path_2086" data-name="Path 2086" d="M1333.524,580.675v.013s20.85-4.544,19.424-20.878-22.769-17.167-22.769-17.167v.013c-3.313-.391-6.551,1.717-8.669,6.262-3.665,7.864-2.6,20,2.384,27.1C1326.771,580.128,1330.326,581.638,1333.524,580.675Z" transform="translate(-1318.544 -541.803)" fill="#fa8334"/>
        <path id="Path_2087" data-name="Path 2087" d="M1331.57,581.731c-2.992,0-5.953-1.843-8.365-5.284-5.121-7.3-6.221-19.819-2.453-27.9,2.163-4.648,5.551-7.106,9.3-6.741l.124,0c.221.008,22.066,1.053,23.536,17.9s-19.838,21.686-20.051,21.732l-.147.031a7.109,7.109,0,0,1-.752.166l-.073.015v0A7.357,7.357,0,0,1,1331.57,581.731Zm-2.2-38.353c-2.832,0-5.414,2.092-7.163,5.847-3.549,7.619-2.511,19.419,2.313,26.3,2.567,3.662,5.75,5.243,8.741,4.346l1.037-.312v.052c4.014-1.141,18.994-6.32,17.817-19.767-1.189-13.634-17.286-16-21.163-16.37v.037l-.9-.1A5.892,5.892,0,0,0,1329.367,543.378Z" transform="translate(-1318.513 -541.77)" fill="#150035"/>
      </g>
      <g id="Group_2929" data-name="Group 2929" transform="translate(31.106 14.777)">
        <path id="Path_2088" data-name="Path 2088" d="M1258.181,505.963c-6.765-3.907-9.389-9.449-7.815-14.6a.237.237,0,0,0-.415-.216,63.161,63.161,0,0,0-8.889,18.62c-1.446,6.346,2.2,13.121,10.639,18,7.046,4.068,16.228,6.131,25.459,6.217a9.884,9.884,0,0,0,8.723-5.087l.086-.156a13.672,13.672,0,0,0-.456-14.086h0a8.546,8.546,0,0,0-7.179-3.965C1271.05,510.742,1263.738,509.171,1258.181,505.963Z" transform="translate(-1239.95 -490.244)" fill="#fa8334"/>
        <path id="Path_2089" data-name="Path 2089" d="M1277.22,534.747h-.1c-9.764-.09-18.944-2.335-25.85-6.323-8.481-4.9-12.6-11.951-11.019-18.873a64.43,64.43,0,0,1,9.019-18.91,1.04,1.04,0,0,1,1.833.921c-1.523,4.991,1.262,10.1,7.449,13.676h0c5.164,2.982,12.026,4.616,19.364,4.616.151,0,.3-.006.451,0a9.288,9.288,0,0,1,7.79,4.33,14.468,14.468,0,0,1,.484,14.912l-.088.155A10.67,10.67,0,0,1,1277.22,534.747Zm-28.127-41a65.049,65.049,0,0,0-7.293,16.22c-1.4,6.143,2.434,12.543,10.271,17.07,6.67,3.85,15.571,6.02,25.063,6.109a8.993,8.993,0,0,0,8.015-4.673l.086-.158a12.853,12.853,0,0,0-.431-13.259,7.784,7.784,0,0,0-6.444-3.6c-.164,0-.3,0-.447,0-7.613,0-14.761-1.71-20.165-4.83h0C1251.923,503.266,1248.839,498.587,1249.093,493.743Z" transform="translate(-1239.917 -490.212)" fill="#150035"/>
      </g>
      <g id="Group_2930" data-name="Group 2930" transform="translate(31.106 14.777)">
        <path id="Path_2090" data-name="Path 2090" d="M1277.665,530.263c-9.232-.086-14.777-.869-22.351-4.91-8.6-4.59-12.99-10.035-10.642-18a68.974,68.974,0,0,1,5.265-12.792,9.963,9.963,0,0,1,.429-3.2.237.237,0,0,0-.415-.216,63.21,63.21,0,0,0-8.889,18.62c-1.446,6.346,2.2,13.121,10.639,18,7.046,4.068,16.228,6.217,25.459,6.217,3.643,0,6.364-2.618,8.226-4.564a.167.167,0,0,0-.188-.267A23.96,23.96,0,0,1,1277.665,530.263Z" transform="translate(-1239.95 -490.244)" fill="#150035"/>
        <path id="Path_2091" data-name="Path 2091" d="M1277.127,534.747c-9.61,0-18.8-2.244-25.858-6.323-8.481-4.9-12.6-11.953-11.019-18.873a64.52,64.52,0,0,1,9.019-18.91,1.04,1.04,0,0,1,1.833.921,9.19,9.19,0,0,0-.4,2.947l.008.215-.1.189a68.144,68.144,0,0,0-5.2,12.643c-2.042,6.923,1.12,12.187,10.25,17.057,7.479,3.99,13.048,4.733,21.98,4.815h0a22.684,22.684,0,0,0,7.264-1.071.973.973,0,0,1,1.146.393.961.961,0,0,1-.118,1.187C1283.538,532.435,1280.814,534.747,1277.127,534.747Zm-28.017-41.029a65.068,65.068,0,0,0-7.31,16.245c-1.4,6.143,2.434,12.543,10.271,17.07,6.823,3.939,15.722,6.109,25.055,6.109a9.008,9.008,0,0,0,5.892-2.617,26.873,26.873,0,0,1-5.394.508c-9.2-.087-14.947-.857-22.72-5.006-9.8-5.224-13.3-11.24-11.032-18.931a69.875,69.875,0,0,1,5.227-12.762C1249.095,494.128,1249.1,493.923,1249.109,493.718Z" transform="translate(-1239.917 -490.212)" fill="#150035"/>
      </g>
      <g id="Group_2931" data-name="Group 2931" transform="translate(38.099 29.16)">
        <path id="Path_2092" data-name="Path 2092" d="M1252.934,511.267c-.221,2.795-1.491,4.972-2.836,4.866s-2.257-2.456-2.036-5.249,1.489-4.971,2.834-4.866S1253.155,508.476,1252.934,511.267Z" transform="translate(-1247.226 -505.211)" fill="#fff"/>
        <path id="Path_2093" data-name="Path 2093" d="M1250.164,516.908c-.055,0-.109,0-.163,0-1.846-.148-3.035-2.776-2.772-6.116s1.866-5.739,3.7-5.6,3.036,2.776,2.771,6.115a9.3,9.3,0,0,1-1.1,3.862A2.974,2.974,0,0,1,1250.164,516.908Zm.606-10.125c-.655,0-1.741,1.61-1.941,4.13-.2,2.559.647,4.338,1.3,4.389.3.013.729-.34,1.085-.949a7.757,7.757,0,0,0,.887-3.181c.206-2.558-.646-4.337-1.3-4.388Z" transform="translate(-1247.193 -505.178)" fill="#150035"/>
      </g>
      <g id="Group_2932" data-name="Group 2932" transform="translate(56.335 38.249)">
        <path id="Path_2094" data-name="Path 2094" d="M1278.489,521.3a5.742,5.742,0,1,1-5.7-5.833A5.766,5.766,0,0,1,1278.489,521.3Z" transform="translate(-1266.201 -514.667)" fill="#fff"/>
        <path id="Path_2095" data-name="Path 2095" d="M1272.715,527.819h-.047a6.6,6.6,0,0,1-4.55-11.283,6.454,6.454,0,0,1,4.641-1.9,6.6,6.6,0,0,1,4.552,11.285A6.482,6.482,0,0,1,1272.715,527.819Zm0-11.578a4.885,4.885,0,0,0-3.467,1.434,5,5,0,0,0,3.432,8.539,4.735,4.735,0,0,0,3.5-1.434,4.991,4.991,0,0,0,1.473-3.52l.8.01-.8-.01a4.968,4.968,0,0,0-4.906-5.019Z" transform="translate(-1266.169 -514.635)" fill="#150035"/>
      </g>
      <g id="Group_2933" data-name="Group 2933" transform="translate(10.654 88.428)">
        <path id="Path_2096" data-name="Path 2096" d="M1286.487,593.422,1282.56,581.3a3.494,3.494,0,0,0-3.408-2.395,75.973,75.973,0,0,1-40.652-10.678,3.5,3.5,0,0,0-4.507.677l-4.8,5.559a30.875,30.875,0,0,0-6.543,12.33c-6.684,25.621-.779,36.386-.683,36.558a50.137,50.137,0,0,0,9.538,7.015c14.811,8.551,35.036,12.061,54.3,10.543,4.636-12.88,3.878-28.476,2.959-36.925A53.082,53.082,0,0,0,1286.487,593.422Z" transform="translate(-1218.669 -566.881)" fill="#fa8334"/>
        <path id="Path_2097" data-name="Path 2097" d="M1276.861,642.024c-17.118,0-33.438-3.87-45.788-11a51.23,51.23,0,0,1-9.689-7.129l-.149-.192c-.248-.455-6.095-11.431.609-37.15a31.791,31.791,0,0,1,6.713-12.654l4.8-5.557a4.291,4.291,0,0,1,5.54-.836,75.222,75.222,0,0,0,40.218,10.558,4.34,4.34,0,0,1,4.179,2.95l3.929,12.125a53.853,53.853,0,0,1,2.317,10.719c.905,8.3,1.717,24.183-3,37.284l-.175.488-.521.039C1282.835,641.908,1279.836,642.024,1276.861,642.024Zm-54.272-19.2a49.563,49.563,0,0,0,9.289,6.81c14.1,8.136,33.5,11.945,53.319,10.475,4.414-12.7,3.62-28.017,2.744-36.078a52.418,52.418,0,0,0-2.251-10.4l-3.929-12.126a2.682,2.682,0,0,0-2.582-1.839h-.048a76.994,76.994,0,0,1-41.086-10.8,2.7,2.7,0,0,0-3.478.52l-4.794,5.557a30.229,30.229,0,0,0-6.375,12.012C1217.186,610.785,1222.029,621.687,1222.589,622.825Z" transform="translate(-1218.636 -566.849)" fill="#150035"/>
      </g>
      <g id="Group_2934" data-name="Group 2934" transform="translate(15.695 136.773)">
        <path id="Path_2098" data-name="Path 2098" d="M1228.293,620.549c0,1.414-.8,2.561-1.787,2.561s-1.792-1.147-1.792-2.561.8-2.561,1.792-2.561S1228.293,619.135,1228.293,620.549Z" transform="translate(-1223.913 -617.186)" fill="#fff"/>
        <path id="Path_2099" data-name="Path 2099" d="M1226.473,623.882c-1.455,0-2.592-1.478-2.592-3.366s1.137-3.364,2.592-3.364,2.588,1.477,2.588,3.364S1227.925,623.882,1226.473,623.882Zm0-5.125c-.466,0-.988.753-.988,1.76s.522,1.763.988,1.763.986-.754.986-1.763S1226.939,618.757,1226.473,618.757Z" transform="translate(-1223.881 -617.153)" fill="#150035"/>
      </g>
      <g id="Group_2935" data-name="Group 2935" transform="translate(25.426 94.006)">
        <path id="Path_2100" data-name="Path 2100" d="M1238.358,576.719c-.663,1.25-1.9,1.894-2.755,1.439s-1.015-1.837-.349-3.089,1.9-1.892,2.755-1.436S1239.024,575.47,1238.358,576.719Z" transform="translate(-1234.039 -572.685)" fill="#fff"/>
        <path id="Path_2101" data-name="Path 2101" d="M1236.176,579.072a2.064,2.064,0,0,1-.981-.238,2.336,2.336,0,0,1-1.168-1.864,4.243,4.243,0,0,1,2.124-4,2.345,2.345,0,0,1,2.2-.078c1.268.674,1.567,2.506.682,4.172h0a4,4,0,0,1-1.641,1.694A2.638,2.638,0,0,1,1236.176,579.072Zm1.2-4.816a1.119,1.119,0,0,0-.477.135,2.643,2.643,0,0,0-1.272,2.4.816.816,0,0,0,.326.629.827.827,0,0,0,.7-.082,2.458,2.458,0,0,0,.967-1.022c.472-.892.38-1.792-.018-2A.47.47,0,0,0,1237.373,574.256Z" transform="translate(-1234.006 -572.653)" fill="#150035"/>
      </g>
      <g id="Group_2936" data-name="Group 2936" transform="translate(68.023 151.933)">
        <path id="Path_2102" data-name="Path 2102" d="M1284.29,636.323a2.563,2.563,0,1,1-2.561-2.562A2.562,2.562,0,0,1,1284.29,636.323Z" transform="translate(-1278.364 -632.961)" fill="#fff"/>
        <path id="Path_2103" data-name="Path 2103" d="M1281.7,639.654a3.363,3.363,0,1,1,3.365-3.364A3.367,3.367,0,0,1,1281.7,639.654Zm0-5.121a1.758,1.758,0,1,0,1.758,1.758A1.762,1.762,0,0,0,1281.7,634.533Z" transform="translate(-1278.331 -632.928)" fill="#150035"/>
      </g>
      <g id="Group_2937" data-name="Group 2937" transform="translate(64.86 105.53)">
        <path id="Path_2104" data-name="Path 2104" d="M1281,588.042a2.562,2.562,0,1,1-2.561-2.562A2.561,2.561,0,0,1,1281,588.042Z" transform="translate(-1275.071 -584.677)" fill="#fff"/>
        <path id="Path_2105" data-name="Path 2105" d="M1278.406,591.373a3.365,3.365,0,1,1,3.364-3.364A3.37,3.37,0,0,1,1278.406,591.373Zm0-5.124a1.76,1.76,0,1,0,1.761,1.761A1.763,1.763,0,0,0,1278.406,586.249Z" transform="translate(-1275.039 -584.644)" fill="#150035"/>
      </g>
    </g>
    <g id="Group_2939" data-name="Group 2939" transform="translate(1320.17 557.04)">
      <path id="Path_2106" data-name="Path 2106" d="M1335.338,581.555c-10.634-5.249-10.609-20.535-10.6-21.183l1.6.013c0,.149-.016,14.93,9.71,19.731Z" transform="translate(-1324.736 -560.372)" fill="#150035"/>
    </g>
    <g id="Group_2940" data-name="Group 2940" transform="translate(1320.172 544.121)">
      <path id="Path_2107" data-name="Path 2107" d="M1326.34,556.439l-1.6-.119c.02-.229.453-5.645,3.232-9.389l1.291.957C1326.759,551.251,1326.34,556.388,1326.34,556.439Z" transform="translate(-1324.737 -546.93)" fill="#150035"/>
    </g>
    <g id="Group_2941" data-name="Group 2941" transform="translate(1211.394 532.677)">
      <path id="Path_2108" data-name="Path 2108" d="M1211.657,548.651c-.061-.325-1.363-8.082,7.066-13.629l.881,1.341c-7.551,4.971-6.383,11.933-6.37,12Z" transform="translate(-1211.55 -535.022)" fill="#150035"/>
    </g>
    <g id="Group_2942" data-name="Group 2942" transform="translate(1264.581 484.558)">
      <path id="Path_2109" data-name="Path 2109" d="M1279.407,492.287c-10,0-12.407-6.5-12.514-6.8l1.513-.536c.1.272,2.506,6.621,13.213,5.623l.148,1.6C1280.936,492.251,1280.15,492.287,1279.407,492.287Z" transform="translate(-1266.893 -484.952)" fill="#150035"/>
    </g>
    <g id="Group_2943" data-name="Group 2943" transform="translate(1292.388 620.691)">
      <path id="Path_2110" data-name="Path 2110" d="M1296.026,637.847l-.2-1.592c.16-.02,16.126-2.077,28.619-9.652l.828,1.372C1312.485,635.729,1296.188,637.828,1296.026,637.847Z" transform="translate(-1295.827 -626.603)" fill="#150035"/>
    </g>
    <g id="Group_2944" data-name="Group 2944" transform="translate(1333.326 601.667)">
      <path id="Path_2111" data-name="Path 2111" d="M1339.393,614.824l-.968-1.28a12.37,12.37,0,0,0,3.718-6.736l1.561.367C1342.448,612.479,1339.517,614.731,1339.393,614.824Z" transform="translate(-1338.425 -606.808)" fill="#150035"/>
    </g>
    <g id="Group_2945" data-name="Group 2945" transform="translate(1253.301 654.286)">
      <path id="Path_2112" data-name="Path 2112" d="M1276.766,673.053c-15.676-.37-21.375-10.289-21.61-10.711l1.4-.782c.054.1,5.532,9.54,20.246,9.888Z" transform="translate(-1255.156 -661.56)" fill="#150035"/>
    </g>
    <g id="Group_2947" data-name="Group 2947" transform="translate(1235.455 586.212)">
      <g id="Group_2946" data-name="Group 2946">
        <path id="Path_2113" data-name="Path 2113" d="M1256.5,620.464l-.237-2a2.678,2.678,0,0,0-2.15-2.264l-5.987-1.189a2.305,2.305,0,0,0-2.6,1.279l-.8,1.786a2.25,2.25,0,0,1-2.561,1.25l-3.511-.726a2.532,2.532,0,0,1-1.84-3.5l11.416-23.02a2.471,2.471,0,0,1,2.62-1.323l7.476,1.192a2.637,2.637,0,0,1,2.189,2.115l4.749,26.775a2.358,2.358,0,0,1-2.94,2.658l-3.672-.759A2.7,2.7,0,0,1,1256.5,620.464Zm-4.437-11.33a2.372,2.372,0,0,0,2.871-2.585l-.223-1.907q-.223-1.711-.5-4.421c-.188-1.81-.971-2.1-1.574-.564-.458,1.165-1.31,3.17-2.535,6.008a2.567,2.567,0,0,0,1.961,3.468Z" transform="translate(-1236.586 -590.727)" fill="#150035"/>
      </g>
    </g>
  </g>
</svg>
