<svg xmlns="http://www.w3.org/2000/svg" width="125" height="125" viewBox="0 0 125 125">
  <g id="Group_3008" data-name="Group 3008" transform="translate(-37.5 -37.5)">
    <path id="Path_2554" data-name="Path 2554" d="M52.344,150.781h93.75V162.5H52.344Z" fill="#fa8334"/>
    <path id="Path_2555" data-name="Path 2555" d="M146.875,137.5H53.125A15.642,15.642,0,0,1,37.5,121.875V53.125A15.642,15.642,0,0,1,53.125,37.5h93.75A15.642,15.642,0,0,1,162.5,53.125v68.75A15.642,15.642,0,0,1,146.875,137.5ZM53.125,49.219a3.91,3.91,0,0,0-3.906,3.906v68.75a3.91,3.91,0,0,0,3.906,3.906h93.75a3.91,3.91,0,0,0,3.906-3.906V53.125a3.91,3.91,0,0,0-3.906-3.906Z" fill="#fa8334"/>
    <path id="Path_2556" data-name="Path 2556" d="M101.9,66.734l7.533,2.068L98.5,108.645l-7.534-2.068Z" fill="#666"/>
    <path id="Path_2557" data-name="Path 2557" d="M71.988,75.243l4.419,4.42L64.239,91.831l-4.419-4.42Z" fill="#666"/>
    <path id="Path_2558" data-name="Path 2558" d="M64.341,83.167,76.509,95.335l-4.419,4.42L59.922,87.587Z" fill="#666"/>
    <path id="Path_2559" data-name="Path 2559" d="M128.4,75.244l12.168,12.168-4.419,4.419L123.984,79.663Z" fill="#666"/>
    <path id="Path_2560" data-name="Path 2560" d="M136.051,83.168l4.419,4.42L128.3,99.754l-4.419-4.42Z" fill="#666"/>
  </g>
</svg>
