<svg xmlns="http://www.w3.org/2000/svg" width="110.223" height="121" viewBox="0 0 110.223 121">
  <g id="Group_3007" data-name="Group 3007" transform="translate(-8.907)">
    <path id="Path_2551" data-name="Path 2551" d="M60.5,0h47.793V29.871H60.5Z" transform="translate(-20.38)" fill="#666"/>
    <path id="Path_2552" data-name="Path 2552" d="M101.207,14.851H26.83A17.922,17.922,0,0,0,8.907,32.774v94.093H119.13V32.774A17.922,17.922,0,0,0,101.207,14.851Zm5.974,100.067H20.855V32.774A5.974,5.974,0,0,1,26.83,26.8h74.377a5.974,5.974,0,0,1,5.974,5.974h0Z" transform="translate(0 -5.866)" fill="#fa8334"/>
    <path id="Path_2553" data-name="Path 2553" d="M102.321,65.212H66.476a5.974,5.974,0,0,0,0,11.948h35.845a5.974,5.974,0,0,0,0-11.948ZM66.476,98.667H84.4a5.974,5.974,0,1,0,0-11.949H66.476a5.974,5.974,0,0,0,0,11.949Zm35.845,9.558H66.476a5.974,5.974,0,0,0,0,11.948h35.845a5.974,5.974,0,0,0,0-11.948Z" transform="translate(-20.38 -25.759)" fill="#fa8334"/>
  </g>
</svg>
