<svg xmlns="http://www.w3.org/2000/svg" width="88.268" height="83.407" viewBox="0 0 88.268 83.407">
  <g id="Group_5945" data-name="Group 5945" transform="translate(-338.716 -39.89)">
    <path id="Path_4944" data-name="Path 4944" d="M418.233,68.763a17.361,17.361,0,0,1,8.61.343h.183a31.767,31.767,0,0,0-63.328,0h.137a17.516,17.516,0,0,1,8.724-.32,2.968,2.968,0,0,1,2.284,2.9l-.182,28.913a2.969,2.969,0,0,1-2.284,2.877,17.105,17.105,0,0,1-3.608.365h-.548a31.971,31.971,0,0,0,20.554,14.753,9.682,9.682,0,0,1-.959-8.016,9.432,9.432,0,0,1,1.987-3.494A20.668,20.668,0,0,1,375,87.216V72.075a20.417,20.417,0,1,1,40.811-1.365q.023.682,0,1.365v15.1a5.818,5.818,0,0,0,.3,1.781V71.664a2.923,2.923,0,0,1,2.124-2.9Z" transform="translate(-12.43 0)" fill="#fa8334"/>
    <path id="Path_4945" data-name="Path 4945" d="M490.967,111.626a17.517,17.517,0,0,0-12.081-13.451c0,.96.16,1.919.16,2.9v15.1a5.709,5.709,0,0,1-11.122,1.781v11.259a2.923,2.923,0,0,0,2.284,2.855,16.7,16.7,0,0,0,3.563.343,17.515,17.515,0,0,0,17.2-20.782Z" transform="translate(-64.29 -29.001)" fill="#666"/>
    <path id="Path_4946" data-name="Path 4946" d="M473.223,121.12a5.709,5.709,0,0,0,5.709-5.709h0v-15.1a17.527,17.527,0,0,0-.16-2.9h-.183A17.361,17.361,0,0,0,469.98,97a2.923,2.923,0,0,0-2.284,2.9v17.288a5.686,5.686,0,0,0,5.527,3.928Z" transform="translate(-64.177 -28.24)" fill="#ffa471"/>
    <path id="Path_4947" data-name="Path 4947" d="M351.107,101.076a17.474,17.474,0,0,1,.16-2.9,17.7,17.7,0,0,0,4.567,34.622,32.089,32.089,0,0,1-4.567-16.626Z" transform="translate(0 -29.001)" fill="#666"/>
    <path id="Path_4948" data-name="Path 4948" d="M372.193,131.693a2.968,2.968,0,0,0,2.284-2.877l.206-28.913A2.968,2.968,0,0,0,372.4,97a17.516,17.516,0,0,0-8.724.32h-.137c0,.959-.16,1.918-.16,2.9v15.1a32.092,32.092,0,0,0,4.568,16.626h.548a17.1,17.1,0,0,0,3.7-.251Z" transform="translate(-12.271 -28.217)" fill="#ffa471"/>
    <path id="Path_4949" data-name="Path 4949" d="M425.847,176.923a5.687,5.687,0,0,1-5.663,5.709h-.046a30.335,30.335,0,0,1-6.623-.731,9.729,9.729,0,1,0,1.027-11.419,19.722,19.722,0,0,0,5.6.822A5.686,5.686,0,0,1,425.847,176.923Z" transform="translate(-37.218 -63.329)" fill="#666"/>
    <path id="Path_4950" data-name="Path 4950" d="M411.146,177.033a9.681,9.681,0,0,0,.959,8.016,30.369,30.369,0,0,0,6.623.731,5.71,5.71,0,0,0,0-11.419,19.722,19.722,0,0,1-5.6-.822A9.433,9.433,0,0,0,411.146,177.033Z" transform="translate(-35.808 -66.5)" fill="#ffa471"/>
  </g>
</svg>
