<svg xmlns="http://www.w3.org/2000/svg" width="84.144" height="73.693" viewBox="0 0 84.144 73.693">
  <g id="Group_5947" data-name="Group 5947" transform="translate(-25.671 -331.174)">
    <path id="Path_4956" data-name="Path 4956" d="M113.805,414.667a5.259,5.259,0,1,0,5.259,5.259,5.165,5.165,0,0,0-5.259-5.259m-24.542,0a5.259,5.259,0,1,0,5.259,5.259,5.165,5.165,0,0,0-5.259-5.259" transform="translate(-33.791 -48.365)" fill="#666"/>
    <path id="Path_4957" data-name="Path 4957" d="M36.189,352.277a3.516,3.516,0,0,1,3.506-3.506H53.719l-5.084-12.8a3.5,3.5,0,0,1,6.486-2.63L61.257,348.6h12.8l6.135-15.251a3.5,3.5,0,0,1,6.486,2.63l-4.909,12.8H95.792a3.516,3.516,0,0,1,3.506,3.506v49.084a3.516,3.516,0,0,1-3.506,3.506h-56.1a3.516,3.516,0,0,1-3.506-3.506Zm7.012,3.506v42.072H92.285V355.784Zm66.614,29.8v-17.53a3.506,3.506,0,0,0-7.012,0v17.53a3.506,3.506,0,0,0,7.012,0m-80.639,3.506a3.516,3.516,0,0,0,3.506-3.506v-17.53a3.506,3.506,0,1,0-7.012,0v17.53a3.516,3.516,0,0,0,3.506,3.506" fill="#fa8334"/>
  </g>
</svg>
