<svg xmlns="http://www.w3.org/2000/svg" width="70.246" height="68.743" viewBox="0 0 70.246 68.743">
  <g id="Group_5946" data-name="Group 5946" transform="translate(338.833 -191.35)">
    <path id="Path_4951" data-name="Path 4951" d="M-328.314,212.782h49.208q10.52,0,10.519,10.52v38.671q0,10.52-10.519,10.519h-49.208q-10.519,0-10.519-10.519V223.3Q-338.833,212.782-328.314,212.782Z" transform="translate(0 -12.399)" fill="#fa8334"/>
    <path id="Path_4952" data-name="Path 4952" d="M-299.361,210.587a4.865,4.865,0,0,1-4.847-4.847v-9.817a4.865,4.865,0,0,1,5.148-4.564,4.865,4.865,0,0,1,4.563,4.564v9.817A4.864,4.864,0,0,1-299.361,210.587Z" transform="translate(-20.031 0)" fill="#666"/>
    <path id="Path_4953" data-name="Path 4953" d="M-223.778,210.587a4.865,4.865,0,0,1-4.847-4.847v-9.817a4.865,4.865,0,0,1,5.148-4.564,4.865,4.865,0,0,1,4.564,4.564v9.817A4.865,4.865,0,0,1-223.778,210.587Z" transform="translate(-63.758 0)" fill="#666"/>
    <path id="Path_4954" data-name="Path 4954" d="M-295.2,275.074h29.855a2.328,2.328,0,0,1,2.634,2.634h0a2.328,2.328,0,0,1-2.634,2.634H-295.2a2.328,2.328,0,0,1-2.634-2.634h0A2.328,2.328,0,0,1-295.2,275.074Z" transform="translate(-23.719 -48.436)" fill="#ffc7ab"/>
    <path id="Path_4955" data-name="Path 4955" d="M-295.2,304.241h29.855a2.328,2.328,0,0,1,2.634,2.634h0a2.328,2.328,0,0,1-2.634,2.634H-295.2a2.328,2.328,0,0,1-2.634-2.634h0A2.328,2.328,0,0,1-295.2,304.241Z" transform="translate(-23.719 -65.31)" fill="#ffc7ab"/>
  </g>
</svg>
